<svg width="40" height="41" viewBox="0 0 40 41" fill="none" xmlns="http://www.w3.org/2000/svg">
<path fill-rule="evenodd" clip-rule="evenodd" d="M36.6294 9.02725C38.827 12.3675 40 16.2947 40 20.312C40 25.699 37.8929 30.8655 34.1421 34.6747C30.3914 38.4839 25.3043 40.6239 20 40.6239C16.0444 40.6239 12.1776 39.4327 8.8886 37.2008C5.59962 34.9689 3.03617 31.7966 1.52242 28.085C0.00866574 24.3735 -0.387401 20.2894 0.384303 16.3493C1.15601 12.4092 3.06082 8.78993 5.85787 5.94925C8.65492 3.10857 12.2186 1.17404 16.0982 0.390298C19.9778 -0.393444 23.9991 0.00880091 27.6537 1.54617C31.3082 3.08353 34.4318 5.68697 36.6294 9.02725ZM23.721 12.5053L28.5265 26.4228L28.5112 26.4306C28.6601 26.8152 28.7393 27.2239 28.745 27.6371C28.75 27.9069 28.6908 28.1739 28.5725 28.4155C28.4611 28.6117 28.2865 28.7629 28.0782 28.8436C27.8615 28.9271 27.6316 28.9693 27.3999 28.9681C27.112 28.9704 26.8242 28.9574 26.5376 28.9292C26.2955 28.9058 26.0613 28.8288 25.8517 28.7035C25.6274 28.5597 25.4376 28.3669 25.296 28.1391C25.1017 27.8155 24.9497 27.4674 24.8438 27.1039L24.1924 25.1579H18.5936C18.446 25.1661 18.2993 25.1293 18.1723 25.0524C18.0453 24.9754 17.9439 24.8617 17.8808 24.7259C17.7235 24.3993 17.6472 24.0385 17.6586 23.6751C17.658 23.4813 17.6695 23.2876 17.693 23.0952C17.7113 22.9289 17.7607 22.7678 17.8387 22.6204C17.9075 22.4916 18.0078 22.3831 18.1299 22.3051C18.2785 22.2215 18.4469 22.1811 18.6166 22.1884H23.2152L20.4062 13.7585C20.3731 13.6517 20.3321 13.5476 20.2836 13.4471C20.2701 13.415 20.2477 13.3876 20.2191 13.3682C20.1905 13.3488 20.157 13.3384 20.1226 13.3381H19.9387C19.9037 13.3376 19.8693 13.3477 19.8399 13.3671C19.8106 13.3865 19.7876 13.4144 19.7739 13.4471C19.7254 13.5476 19.6844 13.6517 19.6513 13.7585L16.8423 22.1884L15.8498 25.1424L15.2098 27.0883C15.0979 27.4578 14.9395 27.811 14.7385 28.1391C14.5979 28.3677 14.4079 28.5607 14.1828 28.7035C13.9824 28.824 13.759 28.8997 13.5275 28.9253C13.2422 28.9536 12.9557 28.9666 12.6691 28.9642C12.4386 28.9661 12.2098 28.9238 11.9946 28.8397C11.7872 28.7594 11.6128 28.6098 11.5003 28.4155C11.3701 28.1743 11.3004 27.9043 11.2972 27.6293C11.3044 27.2163 11.3836 26.8078 11.5309 26.4228L16.3365 12.5014C16.4898 11.9893 16.7325 11.5095 17.0531 11.0847C17.2841 10.7886 17.5757 10.5469 17.9076 10.3764C18.2004 10.2318 18.5179 10.1459 18.8427 10.1234C19.1646 10.0884 19.4865 10.0884 19.8046 10.0884H20.2529C20.571 10.0884 20.8967 10.1001 21.2186 10.1234C21.5397 10.1486 21.8532 10.2358 22.1422 10.3803C22.4741 10.5508 22.7657 10.7925 22.9967 11.0886C23.3215 11.5118 23.567 11.992 23.721 12.5053Z" fill="#31355E"/>
</svg>
