<svg width="30" height="30" viewBox="0 0 30 30" fill="none" xmlns="http://www.w3.org/2000/svg">
<path d="M15.5946 18.0916C17.3023 17.7628 18.4201 16.1118 18.0912 14.4041C17.7624 12.6964 16.1114 11.5786 14.4037 11.9075C12.696 12.2363 11.5782 13.8873 11.9071 15.595C12.2359 17.3027 13.8869 18.4205 15.5946 18.0916Z" fill="#31355E"/>
<path d="M22.3623 9.42892C22.2047 9.02222 21.964 8.65286 21.6556 8.34445C21.3472 8.03605 20.9778 7.79537 20.5711 7.63781C20.009 7.42927 19.4151 7.3195 18.8156 7.31337C17.82 7.2667 17.5223 7.25781 15 7.25781C12.4778 7.25781 12.18 7.25781 11.1845 7.31337C10.585 7.3195 9.99103 7.42927 9.42892 7.63781C9.02222 7.79537 8.65286 8.03605 8.34445 8.34445C8.03605 8.65286 7.79537 9.02222 7.63781 9.42892C7.42927 9.99103 7.3195 10.585 7.31337 11.1845C7.2667 12.18 7.25781 12.4778 7.25781 15C7.25781 17.5223 7.25781 17.82 7.31337 18.8156C7.3195 19.4151 7.42927 20.009 7.63781 20.5711C7.79537 20.9778 8.03605 21.3472 8.34445 21.6556C8.65286 21.964 9.02222 22.2047 9.42892 22.3623C9.99103 22.5708 10.585 22.6806 11.1845 22.6867C12.18 22.7334 12.4778 22.7423 15 22.7423C17.5223 22.7423 17.82 22.7423 18.8156 22.6867C19.4151 22.6806 20.009 22.5708 20.5711 22.3623C20.9778 22.2047 21.3472 21.964 21.6556 21.6556C21.964 21.3472 22.2047 20.9778 22.3623 20.5711C22.5708 20.009 22.6806 19.4151 22.6867 18.8156C22.7334 17.82 22.7423 17.5223 22.7423 15C22.7423 12.4778 22.7423 12.18 22.6867 11.1845C22.6806 10.585 22.5708 9.99103 22.3623 9.42892ZM15 19.8489C14.041 19.8489 13.1035 19.5645 12.3061 19.0317C11.5087 18.4989 10.8872 17.7416 10.5202 16.8556C10.1532 15.9696 10.0572 14.9947 10.2443 14.0541C10.4314 13.1135 10.8932 12.2495 11.5714 11.5714C12.2495 10.8932 13.1135 10.4314 14.0541 10.2443C14.9947 10.0572 15.9696 10.1532 16.8556 10.5202C17.7416 10.8872 18.4989 11.5087 19.0317 12.3061C19.5645 13.1035 19.8489 14.041 19.8489 15C19.8489 16.286 19.3381 17.5194 18.4287 18.4287C17.5194 19.3381 16.286 19.8489 15 19.8489ZM20.0423 11.0911C19.8181 11.0911 19.599 11.0247 19.4126 10.9001C19.2262 10.7756 19.081 10.5986 18.9952 10.3915C18.9094 10.1844 18.887 9.95656 18.9307 9.73671C18.9744 9.51686 19.0824 9.31492 19.2409 9.15642C19.3994 8.99792 19.6013 8.88999 19.8212 8.84626C20.041 8.80253 20.2689 8.82497 20.476 8.91075C20.6831 8.99653 20.8601 9.14179 20.9846 9.32817C21.1091 9.51454 21.1756 9.73366 21.1756 9.95781C21.1756 10.2584 21.0562 10.5467 20.8436 10.7592C20.6311 10.9717 20.3428 11.0911 20.0423 11.0911Z" fill="#31355E"/>
<path d="M15 0C12.0333 0 9.13319 0.879734 6.66645 2.52796C4.19972 4.17618 2.27713 6.51886 1.14181 9.25975C0.00649929 12.0006 -0.290551 15.0166 0.288227 17.9264C0.867006 20.8361 2.29562 23.5088 4.3934 25.6066C6.49119 27.7044 9.16393 29.133 12.0736 29.7118C14.9834 30.2906 17.9994 29.9935 20.7403 28.8582C23.4811 27.7229 25.8238 25.8003 27.472 23.3335C29.1203 20.8668 30 17.9667 30 15C30 11.0218 28.4196 7.20644 25.6066 4.3934C22.7936 1.58035 18.9783 0 15 0V0ZM24.3867 18.8889C24.3702 19.6731 24.2198 20.4487 23.9422 21.1822C23.7 21.8098 23.3291 22.3798 22.8533 22.8556C22.3776 23.3313 21.8076 23.7022 21.18 23.9444C20.4464 24.2221 19.6708 24.3724 18.8867 24.3889C17.88 24.4356 17.5533 24.4467 14.9933 24.4467C12.4333 24.4467 12.1044 24.4467 11.1 24.3889C10.3158 24.3724 9.54024 24.2221 8.80667 23.9444C8.18071 23.7019 7.61228 23.3313 7.13778 22.8564C6.66328 22.3815 6.29316 21.8128 6.05112 21.1867C5.77349 20.4531 5.62318 19.6775 5.60667 18.8933C5.56667 17.8867 5.55556 17.5556 5.55556 15C5.55556 12.4444 5.56667 12.1111 5.61334 11.1067C5.62985 10.3225 5.78016 9.5469 6.05778 8.81333C6.29931 8.18635 6.6692 7.61676 7.14372 7.14109C7.61825 6.66541 8.18694 6.29415 8.81334 6.05111C9.54691 5.77349 10.3225 5.62318 11.1067 5.60667C12.1133 5.56 12.44 5.54889 15 5.54889C17.56 5.54889 17.8889 5.56 18.8933 5.60667C19.6775 5.62318 20.4531 5.77349 21.1867 6.05111C21.8143 6.29337 22.3843 6.66428 22.86 7.14C23.3357 7.61571 23.7066 8.1857 23.9489 8.81333C24.2265 9.5469 24.3768 10.3225 24.3933 11.1067C24.44 12.1133 24.4511 12.44 24.4511 15C24.4511 17.56 24.4444 17.8867 24.3867 18.8889Z" fill="#31355E"/>
</svg>
