<svg width="169" height="169" viewBox="0 0 169 169" fill="none" xmlns="http://www.w3.org/2000/svg">
<path d="M156 73C156 58.7598 151.777 44.8393 143.866 32.999C135.954 21.1586 124.71 11.9302 111.553 6.48071C98.397 1.0312 83.9202 -0.394644 69.9535 2.38349C55.9869 5.16163 43.1577 12.019 33.0883 22.0883C23.019 32.1577 16.1616 44.9869 13.3835 58.9535C10.6054 72.9202 12.0312 87.397 17.4807 100.553C22.9302 113.71 32.1586 124.954 43.999 132.866C55.8393 140.777 69.7598 145 84 145" stroke="#3EB5F1" stroke-width="2" stroke-linecap="round"/>
<g filter="url(#filter0_d_126_110)">
<circle cx="84.5" cy="73.5" r="65.5" fill="url(#paint0_linear_126_110)"/>
<circle cx="84.5" cy="73.5" r="64.5" stroke="url(#paint1_linear_126_110)" stroke-width="2"/>
</g>
<path d="M99.9917 58.3482C100.3 56.8123 101.123 55.4279 102.326 54.4246V54.4246C101.292 54.2303 100.32 53.7897 99.4915 53.1401C98.6634 52.4905 98.004 51.6509 97.5691 50.6925C97.1341 49.7341 96.9364 48.6851 96.9928 47.6341C97.0491 46.5831 97.3577 45.5612 97.8926 44.6548L104.739 32.7073L92.0072 38.7105C91.0926 39.1465 90.0879 39.3597 89.0751 39.3327C88.0623 39.3056 87.0703 39.0391 86.1803 38.5549C85.2904 38.0707 84.5278 37.3825 83.955 36.5469C83.3821 35.7112 83.0154 34.7518 82.8847 33.7471V33.7471L82.4924 34.1983C81.6885 35.0056 80.7331 35.6462 79.6811 36.0833C78.629 36.5204 77.501 36.7454 76.3617 36.7454C75.2224 36.7454 74.0944 36.5204 73.0423 36.0833C71.9903 35.6462 71.0349 35.0056 70.231 34.1983L65.7973 30L64.7968 35.0026C64.6092 36.0445 64.1898 37.0308 63.5696 37.8888C62.9495 38.7467 62.1443 39.4542 61.2138 39.959C60.2833 40.4638 59.2513 40.753 58.1939 40.8051C57.1366 40.8573 56.0811 40.6711 55.1054 40.2603V40.2603L55.3016 40.8292C55.6495 41.8127 55.7733 42.8614 55.6639 43.8988C55.5546 44.9363 55.2149 45.9362 54.6696 46.8255C54.1244 47.7148 53.3874 48.4711 52.5124 49.0391C51.6374 49.6071 50.6466 49.9725 49.6124 50.1086L41 51.2857L47.1797 56.406C47.9912 57.0817 48.639 57.9326 49.0742 58.8947C49.5095 59.8568 49.7209 60.9051 49.6926 61.9607C49.6643 63.0163 49.3969 64.0517 48.9107 64.9891C48.4245 65.9265 47.732 66.7414 46.8854 67.3726L47.474 67.4903C48.5034 67.683 49.4775 68.101 50.3264 68.7143C51.1753 69.3277 51.878 70.1212 52.3842 71.0381C52.8905 71.9549 53.1877 72.9723 53.2545 74.0175C53.3213 75.0627 53.1562 76.1097 52.7709 77.0835C51.9469 79.5358 49.5143 85.2839 49.5143 85.2839L57.028 82.3216C58.0199 81.9458 59.0839 81.7989 60.1405 81.8919C61.1971 81.9849 62.2191 82.3153 63.1301 82.8585C64.0411 83.4018 64.8177 84.1437 65.4019 85.0291C65.986 85.9145 66.3626 86.9203 66.5036 87.9716L67.0137 87.3634C67.5684 86.7164 68.2458 86.1856 69.0068 85.8017C69.7678 85.4179 70.5973 85.1886 71.4474 85.127" stroke="white" stroke-width="3" stroke-linejoin="round"/>
<path d="M73.154 78.7114C69.8386 78.4518 66.6639 77.2611 63.9954 75.2765C61.327 73.2919 59.2732 70.594 58.0707 67.4934C56.8682 64.3929 56.5658 61.0157 57.1983 57.7508C57.8308 54.486 59.3725 51.4661 61.6459 49.0389C63.9193 46.6118 66.832 44.876 70.0485 44.0315C73.2651 43.1869 76.6548 43.268 79.8273 44.2653C82.9998 45.2626 85.8262 47.1356 87.981 49.6687C90.1357 52.2017 91.5313 55.2918 92.0071 58.5832" stroke="white" stroke-width="3" stroke-miterlimit="10"/>
<path d="M96.382 93.3073C93.953 88.2759 93.6218 82.4856 95.4612 77.21C97.3007 71.9343 101.16 67.6053 106.191 65.1749C107.126 64.7363 108.089 64.3627 109.075 64.0567C104.372 63.1763 99.5162 63.6182 95.0491 65.3334C90.582 67.0487 86.6785 69.9698 83.773 73.7718C80.8675 77.5737 79.074 82.1074 78.5922 86.8681C78.1103 91.6289 78.959 96.4299 81.0437 100.737C83.1284 105.044 86.3674 108.688 90.4002 111.264C94.433 113.839 99.1014 115.245 103.886 115.325C108.67 115.405 113.383 114.156 117.499 111.716C121.616 109.277 124.975 105.743 127.202 101.508C126.362 102.099 125.476 102.624 124.554 103.077C119.522 105.516 113.728 105.857 108.445 104.025C103.162 102.193 98.8233 98.3377 96.382 93.3073Z" stroke="white" stroke-width="3" stroke-linejoin="round"/>
<defs>
<filter id="filter0_d_126_110" x="0" y="0" width="169" height="169" filterUnits="userSpaceOnUse" color-interpolation-filters="sRGB">
<feFlood flood-opacity="0" result="BackgroundImageFix"/>
<feColorMatrix in="SourceAlpha" type="matrix" values="0 0 0 0 0 0 0 0 0 0 0 0 0 0 0 0 0 0 127 0" result="hardAlpha"/>
<feOffset dy="11"/>
<feGaussianBlur stdDeviation="9.5"/>
<feComposite in2="hardAlpha" operator="out"/>
<feColorMatrix type="matrix" values="0 0 0 0 0 0 0 0 0 0.541176 0 0 0 0 0.807843 0 0 0 0.48 0"/>
<feBlend mode="normal" in2="BackgroundImageFix" result="effect1_dropShadow_126_110"/>
<feBlend mode="normal" in="SourceGraphic" in2="effect1_dropShadow_126_110" result="shape"/>
</filter>
<linearGradient id="paint0_linear_126_110" x1="46.5" y1="23.5" x2="125.102" y2="71.0329" gradientUnits="userSpaceOnUse">
<stop stop-color="#00AEE8"/>
<stop offset="1" stop-color="#0279B7"/>
</linearGradient>
<linearGradient id="paint1_linear_126_110" x1="50" y1="16.5" x2="122.5" y2="126" gradientUnits="userSpaceOnUse">
<stop stop-color="#027AB7"/>
<stop offset="1" stop-color="white" stop-opacity="0"/>
</linearGradient>
</defs>
</svg>
