<svg width="169" height="170" viewBox="0 0 169 170" fill="none" xmlns="http://www.w3.org/2000/svg">
<path d="M84 145C98.2402 145 112.161 140.777 124.001 132.866C135.841 124.954 145.07 113.71 150.519 100.553C155.969 87.397 157.395 72.9202 154.617 58.9535C151.838 44.9869 144.981 32.1577 134.912 22.0883C124.842 12.019 112.013 5.16163 98.0465 2.38349C84.0799 -0.394647 69.6031 1.03119 56.4468 6.4807C43.2905 11.9302 32.0456 21.1586 24.1342 32.999C16.2227 44.8393 12 58.7598 12 73" stroke="#3EB5F1" stroke-width="2" stroke-linecap="round"/>
<g filter="url(#filter0_d_126_109)">
<circle cx="84.4997" cy="73.5088" r="65.5" fill="url(#paint0_linear_126_109)"/>
<circle cx="84.4997" cy="73.5088" r="64.5" stroke="url(#paint1_linear_126_109)" stroke-width="2"/>
</g>
<path d="M56.9922 70.0166L68.988 84.0117L78.9844 78.0138" stroke="white" stroke-width="3" stroke-miterlimit="10"/>
<path d="M68.988 106.004C82.2382 106.004 92.9795 95.2622 92.9795 82.012C92.9795 68.7619 82.2382 58.0205 68.988 58.0205C55.7379 58.0205 44.9965 68.7619 44.9965 82.012C44.9965 95.2622 55.7379 106.004 68.988 106.004Z" stroke="white" stroke-width="3" stroke-miterlimit="10"/>
<path d="M68.988 116C87.759 116 102.976 100.783 102.976 82.0119C102.976 63.2409 87.759 48.0239 68.988 48.0239C50.2169 48.0239 35 63.2409 35 82.0119C35 100.783 50.2169 116 68.988 116Z" stroke="white" stroke-width="3" stroke-miterlimit="10"/>
<path d="M99.5201 40.1957C96.9353 41.8238 94.8075 44.0831 93.3373 46.7609C96.8616 44.5247 101.13 43.7802 105.203 44.691C109.276 45.6019 112.821 48.0936 115.057 51.6179C117.293 55.1422 118.038 59.4105 117.127 63.4838C116.216 67.5571 113.725 71.1017 110.2 73.3379C113.247 73.1696 116.2 72.2206 118.774 70.5819C122.658 67.9636 125.367 63.9342 126.327 59.35C127.287 54.7657 126.421 49.9878 123.915 46.0314C121.408 42.0751 117.457 39.2522 112.902 38.1625C108.347 37.0728 103.546 37.8022 99.5201 40.1957V40.1957Z" stroke="white" stroke-width="3" stroke-linejoin="round"/>
<defs>
<filter id="filter0_d_126_109" x="-0.000335693" y="0.00878906" width="169" height="169" filterUnits="userSpaceOnUse" color-interpolation-filters="sRGB">
<feFlood flood-opacity="0" result="BackgroundImageFix"/>
<feColorMatrix in="SourceAlpha" type="matrix" values="0 0 0 0 0 0 0 0 0 0 0 0 0 0 0 0 0 0 127 0" result="hardAlpha"/>
<feOffset dy="11"/>
<feGaussianBlur stdDeviation="9.5"/>
<feComposite in2="hardAlpha" operator="out"/>
<feColorMatrix type="matrix" values="0 0 0 0 0 0 0 0 0 0.541176 0 0 0 0 0.807843 0 0 0 0.48 0"/>
<feBlend mode="normal" in2="BackgroundImageFix" result="effect1_dropShadow_126_109"/>
<feBlend mode="normal" in="SourceGraphic" in2="effect1_dropShadow_126_109" result="shape"/>
</filter>
<linearGradient id="paint0_linear_126_109" x1="46.4997" y1="23.5088" x2="125.101" y2="71.0417" gradientUnits="userSpaceOnUse">
<stop stop-color="#00AEE8"/>
<stop offset="1" stop-color="#0279B7"/>
</linearGradient>
<linearGradient id="paint1_linear_126_109" x1="49.9997" y1="16.5088" x2="122.5" y2="126.009" gradientUnits="userSpaceOnUse">
<stop stop-color="#027AB7"/>
<stop offset="1" stop-color="white" stop-opacity="0"/>
</linearGradient>
</defs>
</svg>
