<svg width="170" height="169" viewBox="0 0 170 169" fill="none" xmlns="http://www.w3.org/2000/svg">
<path d="M158 73C158 58.7598 153.777 44.8393 145.866 32.999C137.954 21.1586 126.709 11.9302 113.553 6.48071C100.397 1.0312 85.9201 -0.394644 71.9535 2.38349C57.9868 5.16163 45.1577 12.019 35.0883 22.0883C25.0189 32.1577 18.1616 44.9869 15.3834 58.9535C12.6053 72.9202 14.0311 87.397 19.4806 100.553C24.9302 113.71 34.1586 124.954 45.9989 132.866C57.8393 140.777 71.7597 145 86 145" stroke="#3EB5F1" stroke-width="2" stroke-linecap="round"/>
<g filter="url(#filter0_d_126_108)">
<circle cx="85.4978" cy="73.5" r="65.5" transform="rotate(90 85.4978 73.5)" fill="url(#paint0_linear_126_108)"/>
<circle cx="85.4978" cy="73.5" r="64.5" transform="rotate(90 85.4978 73.5)" stroke="url(#paint1_linear_126_108)" stroke-width="2"/>
</g>
<path d="M43.6849 44.5375C47.3198 40.9037 52.2491 38.8623 57.3889 38.8623C62.5287 38.8623 67.458 40.9037 71.093 44.5375L109.472 82.9166C113.106 86.5515 115.147 91.4809 115.147 96.6207C115.147 101.76 113.106 106.69 109.472 110.325V110.325C105.837 113.959 100.908 116 95.768 116C90.6282 116 85.6989 113.959 82.064 110.325L43.6849 71.965C41.8827 70.1648 40.453 68.027 39.4775 65.6739C38.5021 63.3208 38 60.7985 38 58.2512C38 55.704 38.5021 53.1817 39.4775 50.8286C40.453 48.4755 41.8827 46.3377 43.6849 44.5375V44.5375Z" stroke="white" stroke-width="3" stroke-miterlimit="10"/>
<path d="M58.7652 87.0263C61.7696 90.0307 70.3952 86.3479 77.9354 78.8077C85.4755 71.2676 89.1777 62.6226 86.1733 59.6182" stroke="white" stroke-width="3" stroke-miterlimit="10"/>
<path d="M102.61 87.0254L103.987 88.4016C105.072 89.4695 105.934 90.7427 106.522 92.147C107.111 93.5514 107.414 95.0588 107.414 96.5814C107.414 98.104 107.111 99.6114 106.522 101.016C105.934 102.42 105.072 103.693 103.987 104.761V104.761" stroke="white" stroke-width="3" stroke-miterlimit="10"/>
<path d="M123.809 39.4804C121.683 37.4178 119.068 35.9303 116.209 35.158C119.122 37.9666 120.8 41.8174 120.874 45.8633C120.948 49.9093 119.412 53.819 116.603 56.7322C113.795 59.6455 109.944 61.3238 105.898 61.3978C101.852 61.4719 97.9425 59.9356 95.0292 57.1271C95.885 59.9592 97.4549 62.5237 99.5879 64.574C102.943 67.6335 107.36 69.2641 111.898 69.1192C116.437 68.9744 120.74 67.0656 123.894 63.7984C127.047 60.5312 128.803 56.163 128.787 51.6222C128.771 47.0813 126.985 42.7255 123.809 39.4804V39.4804Z" stroke="white" stroke-width="3" stroke-linejoin="round"/>
<defs>
<filter id="filter0_d_126_108" x="0.997803" y="0" width="169" height="169" filterUnits="userSpaceOnUse" color-interpolation-filters="sRGB">
<feFlood flood-opacity="0" result="BackgroundImageFix"/>
<feColorMatrix in="SourceAlpha" type="matrix" values="0 0 0 0 0 0 0 0 0 0 0 0 0 0 0 0 0 0 127 0" result="hardAlpha"/>
<feOffset dy="11"/>
<feGaussianBlur stdDeviation="9.5"/>
<feComposite in2="hardAlpha" operator="out"/>
<feColorMatrix type="matrix" values="0 0 0 0 0 0 0 0 0 0.541176 0 0 0 0 0.807843 0 0 0 0.48 0"/>
<feBlend mode="normal" in2="BackgroundImageFix" result="effect1_dropShadow_126_108"/>
<feBlend mode="normal" in="SourceGraphic" in2="effect1_dropShadow_126_108" result="shape"/>
</filter>
<linearGradient id="paint0_linear_126_108" x1="47.4978" y1="23.5" x2="126.1" y2="71.0329" gradientUnits="userSpaceOnUse">
<stop stop-color="#00AEE8"/>
<stop offset="1" stop-color="#0279B7"/>
</linearGradient>
<linearGradient id="paint1_linear_126_108" x1="50.9978" y1="16.5" x2="123.498" y2="126" gradientUnits="userSpaceOnUse">
<stop stop-color="#027AB7"/>
<stop offset="1" stop-color="white" stop-opacity="0"/>
</linearGradient>
</defs>
</svg>
