<svg width="169" height="170" viewBox="0 0 169 170" fill="none" xmlns="http://www.w3.org/2000/svg">
<path d="M84 0.999966C69.7598 0.999967 55.8393 5.22269 43.999 13.1342C32.1586 21.0456 22.9302 32.2905 17.4807 45.4468C12.0312 58.603 10.6054 73.0798 13.3835 87.0465C16.1616 101.013 23.019 113.842 33.0883 123.912C43.1577 133.981 55.9869 140.838 69.9535 143.617C83.9202 146.395 98.397 144.969 111.553 139.519C124.71 134.07 135.954 124.841 143.866 113.001C151.777 101.161 156 87.2402 156 73" stroke="#3EB5F1" stroke-width="2" stroke-linecap="round"/>
<g filter="url(#filter0_d_126_107)">
<circle cx="84.5" cy="73.5029" r="65.5" fill="url(#paint0_linear_126_107)"/>
<circle cx="84.5" cy="73.5029" r="64.5" stroke="url(#paint1_linear_126_107)" stroke-width="2"/>
</g>
<path d="M93.0076 40.7928C89.6055 39.206 85.8963 38.386 82.1424 38.3906C77.1205 38.3884 72.2065 39.8478 68 42.5909C63.7934 45.334 60.4763 49.2422 58.4531 53.8385C53.7974 53.8655 49.3431 55.7408 46.0701 59.052C42.797 62.3631 40.9734 66.8389 41.0004 71.4946C41.0273 76.1503 42.9026 80.6046 46.2138 83.8777C49.5249 87.1507 54.0007 88.9743 58.6564 88.9474C59.6603 88.9393 60.6616 88.8466 61.6499 88.6702C62.3684 91.0313 63.6738 93.1717 65.4441 94.8913C67.2143 96.611 69.3917 97.8537 71.7727 98.5034C74.1536 99.1531 76.6604 99.1885 79.0588 98.6064C81.4572 98.0242 83.6688 96.8435 85.4869 95.1746C86.9658 97.0532 88.86 98.5633 91.0209 99.5865C93.1817 100.61 95.5504 101.118 97.9408 101.071C100.331 101.025 102.678 100.425 104.798 99.3182C106.917 98.2117 108.751 96.6289 110.156 94.6941C110.919 94.8246 111.691 94.8988 112.465 94.9159C115.551 94.9178 118.547 93.8816 120.973 91.974C123.398 90.0665 125.111 87.3985 125.836 84.3994C126.562 81.4002 126.257 78.2443 124.971 75.4394C123.685 72.6344 121.493 70.3435 118.748 68.9353C119.642 66.2462 119.77 63.3612 119.117 60.6034C118.465 57.8457 117.057 55.3241 115.052 53.3211M114.258 103.065C112.979 103.065 111.728 103.444 110.665 104.155C109.601 104.865 108.772 105.876 108.283 107.057C107.793 108.239 107.665 109.539 107.915 110.794C108.164 112.049 108.78 113.201 109.685 114.105C110.589 115.01 111.741 115.626 112.996 115.875C114.251 116.125 115.551 115.997 116.733 115.507C117.914 115.018 118.925 114.189 119.635 113.125C120.346 112.062 120.725 110.811 120.725 109.532C120.725 107.817 120.044 106.172 118.831 104.959C117.618 103.746 115.973 103.065 114.258 103.065Z" stroke="white" stroke-width="3" stroke-miterlimit="10"/>
<path d="M79.9435 68.9725C78.5925 66.1413 78.0883 62.98 78.4915 59.869C78.8947 56.758 80.1882 53.8298 82.2164 51.4365C79.8994 51.4707 77.6173 52.0066 75.5272 53.0072C73.5713 53.9156 71.8148 55.2027 70.3594 56.7941C68.9039 58.3856 67.7784 60.2497 67.0479 62.2789C66.3175 64.308 65.9965 66.4618 66.1036 68.6157C66.2106 70.7697 66.7437 72.881 67.6718 74.8277C68.6 76.7743 69.9048 78.5177 71.5109 79.9569C73.117 81.3961 74.9925 82.5027 77.0289 83.2126C79.0653 83.9225 81.2223 84.2216 83.375 84.0927C85.5278 83.9638 87.6336 83.4095 89.5708 82.4617C91.7045 81.4796 93.5968 80.0415 95.1143 78.2486C91.9593 78.3353 88.8469 77.5052 86.1542 75.8587C83.4616 74.2123 81.3042 71.8203 79.9435 68.9725Z" stroke="white" stroke-width="3" stroke-linejoin="round"/>
<path d="M96.7032 51.3257L99.7891 57.479L105.961 60.5649L99.7891 63.6507L96.7032 69.804L93.6358 63.6507L87.4641 60.5649L93.6358 57.479L96.7032 51.3257Z" stroke="white" stroke-width="3" stroke-linejoin="round"/>
<path d="M109.657 31L113.352 38.3913L120.744 42.087L113.352 45.7827L109.657 53.174L105.961 45.7827L98.5696 42.087L105.961 38.3913L109.657 31Z" stroke="white" stroke-width="3" stroke-linejoin="round"/>
<defs>
<filter id="filter0_d_126_107" x="0" y="0.00292969" width="169" height="169" filterUnits="userSpaceOnUse" color-interpolation-filters="sRGB">
<feFlood flood-opacity="0" result="BackgroundImageFix"/>
<feColorMatrix in="SourceAlpha" type="matrix" values="0 0 0 0 0 0 0 0 0 0 0 0 0 0 0 0 0 0 127 0" result="hardAlpha"/>
<feOffset dy="11"/>
<feGaussianBlur stdDeviation="9.5"/>
<feComposite in2="hardAlpha" operator="out"/>
<feColorMatrix type="matrix" values="0 0 0 0 0 0 0 0 0 0.541176 0 0 0 0 0.807843 0 0 0 0.48 0"/>
<feBlend mode="normal" in2="BackgroundImageFix" result="effect1_dropShadow_126_107"/>
<feBlend mode="normal" in="SourceGraphic" in2="effect1_dropShadow_126_107" result="shape"/>
</filter>
<linearGradient id="paint0_linear_126_107" x1="46.5" y1="23.5029" x2="125.102" y2="71.0358" gradientUnits="userSpaceOnUse">
<stop stop-color="#00AEE8"/>
<stop offset="1" stop-color="#0279B7"/>
</linearGradient>
<linearGradient id="paint1_linear_126_107" x1="50" y1="16.5029" x2="122.5" y2="126.003" gradientUnits="userSpaceOnUse">
<stop stop-color="#027AB7"/>
<stop offset="1" stop-color="white" stop-opacity="0"/>
</linearGradient>
</defs>
</svg>
