<svg width="169" height="170" viewBox="0 0 169 170" fill="none" xmlns="http://www.w3.org/2000/svg">
<path d="M84 0.999966C69.7598 0.999967 55.8393 5.22269 43.999 13.1342C32.1586 21.0456 22.9302 32.2905 17.4807 45.4468C12.0312 58.603 10.6054 73.0798 13.3835 87.0465C16.1616 101.013 23.019 113.842 33.0884 123.912C43.1577 133.981 55.9869 140.838 69.9535 143.617C83.9202 146.395 98.397 144.969 111.553 139.519C124.71 134.07 135.954 124.841 143.866 113.001C151.777 101.161 156 87.2402 156 73" stroke="#3EB5F1" stroke-width="2" stroke-linecap="round"/>
<g filter="url(#filter0_d_126_111)">
<circle cx="84.5002" cy="73.502" r="65.5" fill="url(#paint0_linear_126_111)"/>
<circle cx="84.5002" cy="73.502" r="64.5" stroke="url(#paint1_linear_126_111)" stroke-width="2"/>
</g>
<path d="M97.5193 41.3347C94.9588 42.6483 92.7748 44.5921 91.1731 46.983C94.6657 45.1767 98.7328 44.8319 102.48 46.0243C106.227 47.2168 109.346 49.8488 111.153 53.3414C112.959 56.834 113.304 60.9012 112.111 64.648C110.919 68.3949 108.287 71.5146 104.794 73.3209C107.667 73.4156 110.517 72.7697 113.068 71.4454C116.93 69.3104 119.806 65.7538 121.087 61.5315C122.368 57.3091 121.952 52.7538 119.927 48.8333C117.903 44.9129 114.43 41.9363 110.245 40.5361C106.061 39.1359 101.496 39.4224 97.5193 41.3347V41.3347Z" stroke="white" stroke-width="3" stroke-linejoin="round"/>
<path d="M63.5431 61.2636C62.625 61.2432 61.7208 61.036 60.8854 60.6546C60.05 60.2733 59.3011 59.7258 58.6843 59.0455C58.0675 58.3652 57.5957 57.5665 57.2977 56.6979C56.9997 55.8293 56.8817 54.9091 56.951 53.9934V51.5826C56.8817 50.667 56.9997 49.7468 57.2977 48.8782C57.5957 48.0096 58.0675 47.2108 58.6843 46.5305C59.3011 45.8503 60.05 45.3028 60.8854 44.9214C61.7208 44.5401 62.625 44.3329 63.5431 44.3125C64.4611 44.3329 65.3654 44.5401 66.2008 44.9214C67.0361 45.3028 67.7851 45.8503 68.4019 46.5305C69.0187 47.2108 69.4905 48.0096 69.7885 48.8782C70.0865 49.7468 70.2045 50.667 70.1352 51.5826V53.9934C70.2045 54.9091 70.0865 55.8293 69.7885 56.6979C69.4905 57.5665 69.0187 58.3652 68.4019 59.0455C67.7851 59.7258 67.0361 60.2733 66.2008 60.6546C65.3654 61.036 64.4611 61.2432 63.5431 61.2636V61.2636Z" stroke="white" stroke-width="3" stroke-miterlimit="10"/>
<path d="M64.4849 83.8647L55.0676 95.1655L70.1352 110.233H73.9021L96.5035 95.1655H122.872V89.5151C122.872 88.0165 122.277 86.5793 121.217 85.5197C120.157 84.46 118.72 83.8647 117.222 83.8647H75.7856" stroke="white" stroke-width="3" stroke-miterlimit="10"/>
<path d="M55.0676 95.1658H49.4173V72.5644C49.4173 71.0658 50.0126 69.6287 51.0722 68.569C52.1319 67.5094 53.569 66.9141 55.0676 66.9141H60.718L70.1352 76.3313H81.4359C81.4359 76.3313 82.2835 83.8651 75.7856 83.8651H64.4849L56.9511 76.3313" stroke="white" stroke-width="3" stroke-miterlimit="10"/>
<path d="M122.872 95.1655V114H117.221L113.455 106.466H79.5525" stroke="white" stroke-width="3" stroke-miterlimit="10"/>
<path d="M66.3683 106.466H49.4173L45.6504 114H40V63.147H49.4173V72.5642" stroke="white" stroke-width="3" stroke-miterlimit="10"/>
<defs>
<filter id="filter0_d_126_111" x="0.000205994" y="0.00195312" width="169" height="169" filterUnits="userSpaceOnUse" color-interpolation-filters="sRGB">
<feFlood flood-opacity="0" result="BackgroundImageFix"/>
<feColorMatrix in="SourceAlpha" type="matrix" values="0 0 0 0 0 0 0 0 0 0 0 0 0 0 0 0 0 0 127 0" result="hardAlpha"/>
<feOffset dy="11"/>
<feGaussianBlur stdDeviation="9.5"/>
<feComposite in2="hardAlpha" operator="out"/>
<feColorMatrix type="matrix" values="0 0 0 0 0 0 0 0 0 0.541176 0 0 0 0 0.807843 0 0 0 0.48 0"/>
<feBlend mode="normal" in2="BackgroundImageFix" result="effect1_dropShadow_126_111"/>
<feBlend mode="normal" in="SourceGraphic" in2="effect1_dropShadow_126_111" result="shape"/>
</filter>
<linearGradient id="paint0_linear_126_111" x1="46.5002" y1="23.5019" x2="125.102" y2="71.0348" gradientUnits="userSpaceOnUse">
<stop stop-color="#00AEE8"/>
<stop offset="1" stop-color="#0279B7"/>
</linearGradient>
<linearGradient id="paint1_linear_126_111" x1="50.0002" y1="16.502" x2="122.5" y2="126.002" gradientUnits="userSpaceOnUse">
<stop stop-color="#027AB7"/>
<stop offset="1" stop-color="white" stop-opacity="0"/>
</linearGradient>
</defs>
</svg>
