<svg width="132" height="155" viewBox="0 0 132 155" fill="none" xmlns="http://www.w3.org/2000/svg">
<path d="M101.824 47.0894C101.854 47.0683 101.879 47.0396 101.894 47.0063C101.91 46.973 101.917 46.936 101.915 46.8992C101.912 46.8623 101.9 46.8268 101.879 46.7961C101.859 46.7653 101.831 46.7405 101.798 46.7239C101.798 46.7239 101.793 46.7062 101.792 46.6986C98.6077 41.0374 94.1964 36.1611 88.8816 32.4277C82.8703 28.2047 75.7975 25.5662 68.4415 25.4141C61.3435 25.267 54.2467 27.2865 47.6156 29.641C45.2935 30.466 42.1168 31.8092 41.3415 34.4299C41.0325 35.4832 41.6555 36.072 42.6624 36.2101C43.6694 36.3482 44.5914 36.3891 45.5461 36.8554C45.7037 36.9326 45.8525 37.0173 46.0018 37.1045C46.7595 37.5583 47.4529 38.1117 48.0635 38.7497C49.4103 40.1251 50.4303 41.777 51.6334 43.2672C51.6739 43.3244 51.7214 43.3772 51.7631 43.4287C52.9481 44.8613 54.3634 46.0865 55.9509 47.0541C57.0906 47.7484 58.2858 48.3473 59.5242 48.8447C60.7931 50.9318 61.9021 53.1107 62.5121 55.4843C63.1738 58.0622 62.5931 62.2734 65.6188 63.5213C67.0399 64.1031 68.6588 63.7037 70.0329 63.1758C71.9528 62.4474 73.769 61.3987 75.606 60.4814C79.6858 58.4425 83.7671 56.4059 87.8498 54.3717L101.787 47.4165C101.816 47.4012 101.84 47.3791 101.858 47.3523C101.876 47.3255 101.888 47.2947 101.891 47.2625C101.895 47.2304 101.891 47.1978 101.879 47.1677C101.867 47.1376 101.848 47.1107 101.824 47.0894Z" fill="#1F4D86"/>
<path d="M109.589 87.4113C109.814 83.2223 109.818 79.0243 109.601 74.8348C109.201 67.4402 105.886 57.388 101.741 51.1224C100.896 49.8324 99.9328 51.091 98.8763 50.5126C98.7297 50.428 98.5956 50.3233 98.478 50.2016C98.4437 50.1721 98.4009 50.1543 98.3558 50.1507C98.3106 50.1471 98.2656 50.1579 98.227 50.1816C88.0985 55.7309 77.7184 60.7815 67.0864 65.3334C67.8239 64.5715 68.6713 63.9244 69.6004 63.4136C69.6455 63.3844 69.6778 63.3393 69.6911 63.2874C69.7044 63.2354 69.6977 63.1803 69.6721 63.1331C69.6466 63.0859 69.6043 63.05 69.5535 63.0327C69.5027 63.0153 69.4473 63.0177 69.3982 63.0394C68.2163 63.6921 67.1623 64.5533 66.2872 65.5814C66.2717 65.2828 66.26 64.9887 66.2363 64.6894C66.2126 64.3901 65.7947 64.4102 65.8098 64.6848C65.8459 65.147 65.8693 65.6122 65.8769 66.0785C65.8487 66.113 65.8346 66.1569 65.8373 66.2014C65.84 66.2459 65.8595 66.2877 65.8917 66.3184C66.4654 81.4109 59.7297 96.3 47.7707 105.613C42.1885 109.963 35.7143 113.025 28.8109 114.582C27.1512 114.956 25.3893 115.05 23.7621 115.527C22.7625 115.82 21.4955 116.427 21.4187 117.622C21.402 117.959 21.4564 118.296 21.5786 118.611C22.5721 121.267 27.7689 123.925 29.6695 124.989C33.6298 127.168 37.9024 128.724 42.3367 129.601C60.1048 133.23 86.9094 130.171 98.8377 114.757C104.657 107.226 109.079 97.0417 109.589 87.4113Z" fill="#FED602"/>
<path d="M44.6323 36.7594C44.637 35.5865 44.5042 34.3984 43.9973 33.3457C43.4649 32.3172 42.6765 31.4432 41.708 30.8081C41.0147 30.3271 40.2209 29.9292 39.3754 29.9288C38.53 29.9285 37.749 30.3193 36.9399 30.5483C36.0251 30.8054 35.0662 30.8564 34.1277 31.0255C32.8713 31.2523 31.6507 31.762 30.9726 32.8933C30.1938 34.1958 30.0001 35.7512 29.6672 37.2062C29.4006 38.3242 29.0608 39.4385 29.1189 40.5829C29.1769 41.7274 29.7556 42.9341 30.8225 43.3441C31.7737 43.7069 32.8992 43.3805 33.8169 43.8156C34.5733 44.1691 35.0318 44.998 35.7726 45.398C36.6483 45.87 37.7096 45.666 38.6896 45.4468C39.494 45.2536 40.3285 45.0747 41.0099 44.6034C41.5082 44.2189 41.9478 43.7637 42.3147 43.2522C42.9306 42.5319 43.4592 41.7414 43.8895 40.8971C44.4194 39.7613 44.5745 38.4908 44.6177 37.2444C44.6287 37.0786 44.6308 36.9202 44.6323 36.7594Z" fill="#FFE8DC"/>
<path d="M53.4058 37.7345C52.6924 37.1032 51.6457 37.5016 50.8109 37.2339C50.1483 37.0095 49.5989 36.5359 49.2794 35.9135C49.0289 35.4386 49.0956 34.925 48.9607 34.4303C48.866 34.0357 48.6167 33.7104 48.1654 33.792C47.4967 33.915 47.0719 35.0203 46.7966 35.5117C46.5213 36.0032 46.2479 36.5691 45.9986 37.1132C46.7562 37.567 47.4496 38.1203 48.0603 38.7584C49.4071 40.1338 50.427 41.7857 51.6302 43.2759C51.6221 42.5849 51.3533 41.9218 51.3244 41.1663C51.2778 39.8693 53.8012 38.089 53.4058 37.7345Z" fill="#9ECFE8"/>
<path d="M74.6175 39.6944C74.5412 39.6218 74.4679 39.5502 74.3974 39.4797C73.3549 38.3576 74.1266 37.5383 74.8603 36.5382C75.2067 36.0644 75.4588 35.4207 75.1822 34.9039C75.0608 34.7143 74.8933 34.5585 74.6954 34.4512C74.4974 34.3438 74.2755 34.2884 74.0504 34.2901C73.6004 34.299 73.1536 34.3685 72.7222 34.4966C71.8495 34.7062 70.8613 34.7909 70.1056 34.3062C69.1999 33.7211 68.8566 32.4471 67.8529 32.0327C67.712 31.9623 67.5515 31.9414 67.3973 31.9735C67.071 32.0519 66.9436 32.4463 66.9216 32.778C66.8737 33.5145 67.0921 34.2459 67.0928 34.9841C67.084 35.7082 66.8712 36.4151 66.4788 37.0237C66.0864 37.6323 65.5303 38.1179 64.8744 38.4247C64.3459 38.6639 63.6564 38.9231 63.6485 39.5029C63.6459 39.9824 64.1622 40.2945 64.6313 40.3985C65.1004 40.5026 65.6651 40.5035 66.1751 40.6111C66.6852 40.7187 67.2014 40.9746 67.4286 41.4418C67.6756 41.9469 67.5199 42.5461 67.4207 43.1023C67.3214 43.6585 67.331 44.3224 67.7751 44.6679C68.2192 45.0134 68.8219 44.8606 69.2094 44.5135C69.5745 44.1348 69.8243 43.6601 69.9295 43.1447C70.0555 42.6891 70.2031 42.1561 70.6408 41.9734C70.8732 41.895 71.1215 41.8758 71.3631 41.9177L74.2633 42.2193C74.609 42.2952 74.9704 42.2491 75.286 42.0888C75.726 41.7932 75.7261 41.1137 75.4755 40.6495C75.2383 40.2905 74.9492 39.9686 74.6175 39.6944Z" fill="#9ECFE8"/>
<path d="M109.589 87.4111C109.814 83.2221 109.818 79.0241 109.601 74.8346C109.201 67.44 105.886 57.3877 101.741 51.1222C100.896 49.8322 99.9328 51.0908 98.8764 50.5124C98.5132 50.6156 98.1575 50.7385 97.801 50.8696C97.2938 51.0636 97.4918 51.8882 98.0002 51.6992C98.2459 51.6081 98.4711 51.5434 98.7066 51.4654C102.378 69.9233 101.452 90.756 88.6419 105.685C77.8412 118.263 60.8124 123.753 44.5945 123.093C36.7359 122.776 29.0134 121.13 21.5786 118.611C22.5721 121.267 27.769 123.925 29.6695 124.988C33.6298 127.168 37.9024 128.723 42.3367 129.601C60.1048 133.23 86.9094 130.171 98.8377 114.757C104.657 107.226 109.079 97.0415 109.589 87.4111Z" fill="#CEAF0A"/>
<path d="M95.8519 38.6061L95.8576 38.5405C93.7568 36.26 91.4182 34.2108 88.8816 32.4277C88.1624 32.3515 87.469 32.4163 87.0596 32.817C86.3675 33.4887 87.2836 34.0286 87.8101 34.3382C89.8802 35.5507 87.3395 37.2254 87.8706 38.7245C88.2131 39.6829 89.241 39.273 89.8007 38.7962C90.6379 38.0601 91.5314 37.5031 92.6548 38.1484C93.31 38.5261 93.5634 39.3588 94.266 39.6556C95.0598 39.9867 95.7553 39.4292 95.8519 38.6061Z" fill="#9ECFE8"/>
<path d="M72.7836 55.8013C72.5763 55.2277 72.3787 54.5609 71.658 54.5787C70.8446 54.5894 70.4554 55.4641 70.1015 56.0627C69.9358 56.3722 69.7363 56.6623 69.5066 56.9278C68.8389 57.6232 68.3568 57.565 67.5005 57.3078C67.1494 57.2048 66.8889 56.9891 66.4995 57.0719C64.5112 57.4931 67.4221 60.4246 67.963 60.9394C67.9993 60.9732 68.0461 60.9936 68.0956 60.997C68.145 61.0003 68.1942 60.9866 68.2347 60.958C68.2752 60.9295 68.3047 60.8878 68.3182 60.8401C68.3316 60.7924 68.3282 60.7415 68.3086 60.6959C68.3147 60.6959 68.3208 60.6945 68.3263 60.6917C69.56 60.6879 70.7867 60.5042 71.9675 60.1465C72.5833 59.9479 73.275 59.6534 73.4977 58.9766C73.8341 58.0264 73.1015 56.68 72.7836 55.8013Z" fill="#9ECFE8"/>
<path d="M105.263 53.2009C105.479 50.5593 104.035 46.7809 102.262 44.8254C101.382 43.8569 100.775 44.3453 99.8216 44.9004C98.4666 45.6859 97.1184 45.4745 95.6683 45.9645C94.4309 46.3819 93.3653 47.1808 92.3527 47.9884C91.1792 48.9283 90.0251 49.9491 88.6115 50.5132C87.0104 51.1651 85.2164 51.125 83.6594 51.9162C82.2431 52.6361 81.125 53.7954 79.86 54.7331C78.4307 55.7693 76.8781 56.6237 75.2379 57.2768C72.0711 58.5721 68.6892 59.3172 65.3811 60.2024C64.0939 60.5462 62.6417 60.8601 61.6485 61.8155C60.7254 62.6952 60.5885 63.9079 60.8075 65.11C61.2679 67.6292 62.5416 70.8173 65.6267 69.7609C69.5302 68.4251 73.3631 66.8174 77.2193 65.3512L88.872 60.9136L102.106 55.8636C103.482 55.354 105.123 54.9252 105.263 53.2009Z" fill="#FFE8DC"/>
<path d="M36.25 40.1447C34.3581 40.722 32.512 39.7741 31.9564 37.8609C31.8061 37.3352 30.9801 37.5388 31.1292 38.0595C31.2724 38.6091 31.5266 39.1235 31.8761 39.5712C32.2256 40.0189 32.663 40.3903 33.1614 40.6626C33.6599 40.9349 34.2087 41.1023 34.7743 41.1545C35.3398 41.2067 35.9101 41.1426 36.4499 40.9661C36.9795 40.8096 36.7758 39.9837 36.25 40.1447Z" fill="#F7DBCB"/>
<path d="M41.3685 39.8359C41.1594 40.3858 40.7859 40.8579 40.2988 41.1879C39.8117 41.5179 39.2347 41.6897 38.6464 41.6799C38.5387 41.6859 38.4372 41.7326 38.3625 41.8105C38.2877 41.8884 38.2453 41.9917 38.2437 42.0997C38.2422 42.2076 38.2816 42.3121 38.354 42.3921C38.4264 42.4722 38.5265 42.5218 38.6341 42.5309C39.4074 42.5383 40.164 42.3059 40.7999 41.8658C41.4358 41.4257 41.9197 40.7995 42.1853 40.0732C42.3781 39.5614 41.5588 39.3247 41.3685 39.8359Z" fill="#F7DBCB"/>
<path d="M36.5192 37.1872C35.0286 36.2824 34.7185 34.4895 35.7499 33.0915C36.0771 32.6491 35.3481 32.2088 35.0247 32.6449C34.7177 33.0487 34.4999 33.5131 34.3858 34.0073C34.2717 34.5016 34.2639 35.0144 34.3628 35.5119C34.4618 36.0094 34.6653 36.4802 34.9598 36.8931C35.2544 37.3061 35.6333 37.6518 36.0714 37.9073C36.1662 37.9525 36.2743 37.9612 36.375 37.9318C36.4757 37.9023 36.5621 37.8367 36.6175 37.7476C36.6729 37.6584 36.6936 37.552 36.6754 37.4486C36.6573 37.3452 36.6017 37.2521 36.5192 37.1872Z" fill="#F7DBCB"/>
<path d="M69.3936 65.5714C68.2537 65.9318 67.0325 65.9456 65.8849 65.611C64.7372 65.2765 63.7147 64.6086 62.9471 63.6921C62.5794 63.2747 61.9714 63.8621 62.3278 64.2768C63.1998 65.3033 64.3539 66.0513 65.647 66.428C66.9401 66.8047 68.3154 66.7936 69.6023 66.3961C70.1236 66.2388 69.9194 65.4103 69.3936 65.5714Z" fill="#F7DBCB"/>
<path d="M101.96 47.8135C101.955 47.2664 101.103 47.2515 101.109 47.8011C101.135 51.8079 98.9496 55.0961 95.257 56.6194C94.7484 56.8298 95.1648 57.5725 95.6664 57.3664C99.639 55.7278 101.99 52.1055 101.96 47.8135Z" fill="#F7DBCB"/>
<path d="M95.3087 49.2589C92.737 51.152 90.9366 53.9112 90.2396 57.0276C90.1185 57.5596 90.9359 57.7995 91.0589 57.2643C91.7173 54.2958 93.4364 51.6695 95.8935 49.8783C96.3338 49.5505 95.7426 48.938 95.3087 49.2589Z" fill="#F7DBCB"/>
<path d="M73.5017 76.0753C71.791 77.2511 69.6453 76.8273 68.5719 75.0197C68.2937 74.5514 67.546 74.9583 67.828 75.431C69.1175 77.6041 71.8105 78.2684 73.9112 76.8224C74.3582 76.5117 73.9539 75.7634 73.5017 76.0753Z" fill="#374552"/>
<path d="M100.487 78.0582C98.6778 80.0388 95.8286 79.9497 94.1427 77.8638C93.7991 77.4354 93.1834 78.0246 93.5259 78.448C93.9691 79.0164 94.5322 79.4801 95.175 79.806C95.8179 80.132 96.5247 80.3122 97.2451 80.3339C97.9656 80.3556 98.682 80.2182 99.3432 79.9314C100.005 79.6447 100.594 79.2157 101.071 78.675C101.443 78.2728 100.855 77.6408 100.487 78.0582Z" fill="#374552"/>
<path d="M85.7019 85.975C84.192 88.5445 80.5356 88.2132 79.6047 85.3387C79.4373 84.8198 78.6114 85.0234 78.7776 85.5373C79.92 89.0699 84.5281 89.6436 86.4278 86.4133C86.7066 85.9478 85.9796 85.4936 85.7019 85.975Z" fill="#374552"/>
<path d="M51.019 108.078C50.9386 108.097 50.8542 108.087 50.7801 108.051C50.7059 108.015 50.6465 107.954 50.6119 107.879C50.5772 107.804 50.5695 107.72 50.5899 107.64C50.6103 107.56 50.6577 107.489 50.724 107.44C50.7831 107.397 56.7354 103.017 60.6359 96.81C60.6874 96.7291 60.769 96.6721 60.8626 96.6514C60.9562 96.6307 61.0542 96.648 61.1351 96.6995C61.2159 96.7511 61.273 96.8326 61.2937 96.9262C61.3144 97.0198 61.2971 97.1178 61.2455 97.1987C57.2695 103.525 51.2099 107.982 51.1482 108.026C51.109 108.052 51.0651 108.069 51.019 108.078Z" fill="#FFE2B0"/>
<path d="M32.4559 117.005C31.907 117.137 31.5605 117.22 31.5023 117.234C31.4098 117.257 31.3121 117.241 31.231 117.191C31.1498 117.142 31.0917 117.062 31.0695 116.969C31.0472 116.876 31.0627 116.779 31.1124 116.698C31.1622 116.616 31.2421 116.558 31.3347 116.536C31.398 116.521 37.7824 115.111 41.4375 113.354C43.9652 112.088 46.3861 110.619 48.6764 108.962C48.7141 108.934 48.7569 108.913 48.8025 108.902C48.8481 108.891 48.8954 108.889 48.9418 108.896C48.9883 108.903 49.0329 108.919 49.073 108.943C49.1132 108.967 49.1482 108.999 49.176 109.037C49.2041 109.075 49.2244 109.118 49.2358 109.164C49.2473 109.209 49.2496 109.257 49.2426 109.304C49.2357 109.35 49.2196 109.395 49.1954 109.435C49.1711 109.476 49.1392 109.511 49.1013 109.539C46.7776 111.221 44.3218 112.711 41.7577 113.996C38.8493 115.387 34.3986 116.539 32.4559 117.005Z" fill="#FFE2B0"/>
<path d="M69.0641 140.117C68.9163 139.735 68.3319 139.819 68.0154 139.86C67.4354 139.94 66.8596 140.049 66.2893 140.181C66.154 139.805 65.9779 139.446 65.7643 139.108C65.6269 138.893 65.3868 138.45 65.0569 138.58C64.9306 138.654 64.831 138.766 64.7725 138.9C64.6405 139.112 64.5227 139.332 64.4199 139.56C64.2248 139.992 64.0796 140.445 63.9871 140.91C63.9878 140.917 63.9895 140.924 63.9919 140.93C63.5423 141.063 63.0949 141.206 62.6497 141.357C62.3801 141.448 61.8909 141.539 61.8272 141.875C61.7635 142.212 62.0895 142.433 62.338 142.577C62.7314 142.803 63.1376 143.007 63.5544 143.186C63.4006 143.682 63.308 144.195 63.2789 144.713C63.2598 145.068 63.1906 145.66 63.6035 145.831C64.0164 146.002 64.4131 145.615 64.68 145.345C65.0794 144.918 65.4434 144.46 65.7686 143.974C66.0481 144.315 66.3669 144.622 66.7185 144.888C67.0443 145.131 67.5194 145.538 67.9523 145.325C68.3852 145.111 68.3155 144.609 68.2685 144.235C68.1716 143.686 68.0261 143.147 67.8337 142.624C68.0713 142.244 68.2927 141.851 68.4996 141.453C68.639 141.187 68.8256 140.928 68.9412 140.652C69.0033 140.487 69.135 140.3 69.0641 140.117Z" fill="#9ECFE8"/>
<path d="M101.699 6.64532C101.569 6.30465 101.041 6.37795 100.759 6.41632C100.241 6.48719 99.7289 6.58335 99.2224 6.70228C99.1031 6.3666 98.947 6.04519 98.7568 5.74394C98.6331 5.55161 98.4204 5.15591 98.124 5.26986C98.0121 5.33728 97.9232 5.43696 97.869 5.55582C97.7515 5.74481 97.6458 5.94083 97.5524 6.14279C97.3735 6.53415 97.2405 6.94493 97.1561 7.3669C97.1566 7.37386 97.1583 7.38069 97.161 7.38713C96.7561 7.50575 96.3555 7.63135 95.9574 7.76706C95.7105 7.85309 95.282 7.92921 95.2211 8.23275C95.1602 8.5363 95.4562 8.73277 95.6796 8.86105C96.0286 9.06328 96.3893 9.24468 96.7598 9.4043C96.6253 9.84538 96.5451 10.3012 96.5212 10.7617C96.5037 11.0789 96.4413 11.6102 96.8122 11.762C97.183 11.9137 97.5395 11.5713 97.7778 11.3268C98.1366 10.9449 98.463 10.5337 98.7534 10.0974C99.0036 10.4032 99.2888 10.6787 99.6031 10.918C99.8913 11.1378 100.323 11.4995 100.711 11.3076C101.098 11.1156 101.046 10.6653 100.993 10.3329C100.907 9.84143 100.775 9.3589 100.601 8.8913C100.816 8.55071 101.013 8.19859 101.2 7.8407C101.324 7.60211 101.491 7.37211 101.595 7.12259C101.645 6.97416 101.76 6.79668 101.699 6.64532Z" fill="#9ECFE8"/>
<path d="M107.649 123.79C107.486 123.367 106.827 123.453 106.476 123.507C105.825 123.594 105.188 123.715 104.542 123.865C104.393 123.445 104.197 123.044 103.96 122.667C103.805 122.423 103.537 121.931 103.17 122.073C103.028 122.155 102.916 122.281 102.849 122.431C102.703 122.668 102.572 122.915 102.457 123.17C102.238 123.653 102.075 124.16 101.972 124.68C101.973 124.689 101.975 124.697 101.978 124.705C101.478 124.852 100.981 125.01 100.486 125.178C100.184 125.28 99.6438 125.381 99.5557 125.76C99.4676 126.14 99.8502 126.385 100.128 126.549C100.564 126.802 101.016 127.029 101.479 127.23C101.307 127.785 101.204 128.358 101.172 128.938C101.149 129.334 101.071 129.998 101.534 130.189C101.997 130.38 102.442 129.95 102.742 129.648C103.187 129.168 103.594 128.654 103.959 128.111C104.271 128.493 104.627 128.835 105.02 129.133C105.381 129.407 105.918 129.862 106.403 129.622C106.889 129.382 106.821 128.821 106.758 128.402C106.647 127.789 106.483 127.187 106.267 126.602C106.534 126.177 106.781 125.738 107.022 125.289C107.176 124.985 107.387 124.704 107.515 124.392C107.581 124.2 107.727 123.994 107.649 123.79Z" fill="#FFE8DC"/>
<path d="M123.913 57.8404C123.749 57.4143 123.093 57.5021 122.74 57.555C122.091 57.641 121.452 57.7625 120.809 57.9142C120.658 57.4949 120.462 57.0934 120.224 56.7169C120.072 56.4726 119.804 55.9805 119.434 56.1228C119.293 56.2064 119.182 56.3323 119.117 56.4826C118.969 56.7193 118.837 56.9655 118.721 57.2196C118.501 57.703 118.34 58.2106 118.239 58.7319C118.238 58.7398 118.24 58.7478 118.244 58.7546C117.744 58.9014 117.247 59.0583 116.74 59.2308C116.438 59.3327 115.898 59.433 115.823 59.8122C115.748 60.1913 116.114 60.4351 116.394 60.598C116.831 60.8513 117.282 61.0788 117.746 61.2794C117.573 61.8343 117.469 62.4082 117.436 62.9883C117.416 63.3837 117.337 64.0473 117.801 64.2384C118.264 64.4295 118.706 63.9996 119.008 63.697C119.455 63.2177 119.863 62.7038 120.228 62.1601C120.54 62.5425 120.897 62.8863 121.29 63.184C121.647 63.4567 122.187 63.9104 122.67 63.6713C123.153 63.4323 123.09 62.8695 123.024 62.4519C122.916 61.8382 122.752 61.2355 122.536 60.651C122.803 60.2257 123.051 59.7864 123.291 59.3381C123.445 59.0336 123.653 58.7535 123.784 58.4411C123.845 58.2499 123.991 58.0412 123.913 57.8404Z" fill="#FFE8DC"/>
<path d="M120.842 115.162C120.617 114.579 119.717 114.707 119.232 114.773C118.343 114.892 117.46 115.059 116.584 115.264C116.378 114.687 116.11 114.134 115.784 113.615C115.573 113.284 115.205 112.607 114.699 112.806C114.506 112.921 114.354 113.093 114.263 113.298C114.061 113.623 113.88 113.96 113.722 114.309C113.423 114.972 113.201 115.667 113.058 116.381C113.059 116.393 113.062 116.405 113.067 116.416C112.376 116.616 111.69 116.832 111.008 117.066C110.595 117.208 109.852 117.343 109.747 117.863C109.641 118.384 110.149 118.716 110.54 118.938C111.139 119.285 111.758 119.598 112.394 119.874C112.158 120.635 112.017 121.422 111.972 122.217C111.941 122.759 111.836 123.67 112.469 123.93C113.101 124.19 113.714 123.602 114.12 123.188C114.732 122.532 115.291 121.827 115.789 121.081C116.218 121.604 116.707 122.075 117.247 122.483C117.739 122.86 118.476 123.48 119.142 123.155C119.762 122.851 119.715 122.054 119.625 121.481C119.476 120.641 119.251 119.816 118.956 119.015C119.321 118.43 119.66 117.827 119.979 117.215C120.191 116.806 120.477 116.413 120.654 115.983C120.748 115.725 120.946 115.439 120.842 115.162Z" fill="#FED602"/>
<path d="M126.899 29.9642C126.532 29.0011 125.046 29.2106 124.251 29.3186C122.782 29.5187 121.326 29.7935 119.885 30.1314C119.547 29.1805 119.105 28.2701 118.567 27.4168C118.219 26.869 117.614 25.7542 116.779 26.0776C116.439 26.2075 116.24 26.595 116.059 26.8873C115.727 27.423 115.43 27.9796 115.169 28.5535C114.674 29.6451 114.307 30.7908 114.076 31.9674C114.077 31.9866 114.082 32.0054 114.09 32.0231C112.953 32.3575 111.821 32.7123 110.698 33.1049C110.015 33.3383 108.793 33.5622 108.618 34.4067C108.444 35.2512 109.28 35.8155 109.909 36.1835C110.893 36.7579 111.91 37.2731 112.955 37.7263C112.565 38.98 112.331 40.2771 112.258 41.5881C112.206 42.4835 112.031 43.9835 113.078 44.4116C114.125 44.8397 115.126 43.8718 115.797 43.189C116.806 42.108 117.727 40.9475 118.551 39.7187C119.256 40.5817 120.061 41.3574 120.949 42.0296C121.759 42.6378 122.978 43.6827 124.071 43.1339C125.088 42.6223 125.016 41.3206 124.871 40.3791C124.624 38.9937 124.254 37.633 123.766 36.3131C124.369 35.3471 124.926 34.3573 125.461 33.3459C125.813 32.6702 126.283 32.0223 126.581 31.3222C126.747 30.889 127.074 30.4144 126.899 29.9642Z" fill="#FED602"/>
</svg>
